<?xml version="1.0" encoding="UTF-8"?><svg id="Layer_1" xmlns="http://www.w3.org/2000/svg" viewBox="0 0 24 24"><path d="M2.17,18.89L18.52,1.92s-.03-.02-.04-.03L1.66,18.09c.16,.27,.34,.54,.52,.8h0Z"/><path d="M5.04,21.78L21.51,4.68s-.02-.02-.03-.03L4.29,21.2c.24,.2,.49,.4,.75,.58h0Z"/><path d="M6.85,22.84L22.64,6.44s-.02-.04-.03-.06L5.99,22.39c.28,.16,.56,.31,.86,.45h0Z"/><path d="M5.91,22.34L22.11,5.53s-.02-.03-.03-.04L5.11,21.82c.26,.18,.53,.36,.8,.52h0Z"/><path d="M1.61,18.01L17.61,1.39s-.04-.02-.06-.03L1.16,17.15c.14,.29,.29,.58,.45,.86h0Z"/><path d="M.12,13.69L13.24,.06c-.06,0-.12-.01-.18-.02L.01,12.61c.02,.37,.05,.73,.1,1.09h0Z"/><path d="M.06,10.83L10.38,.11c-.13,.02-.25,.04-.37,.06L.25,9.56c-.09,.41-.15,.84-.19,1.27h0Z"/><path d="M1.12,17.06L16.64,.93s-.05-.02-.07-.03L.74,16.15c.11,.31,.24,.61,.38,.91h0Z"/><path d="M12,24c.27,0,.55,0,.82-.03l11.18-11.61c0-.09,0-.17,0-.26l-12.35,11.89c.11,0,.23,0,.35,0h0Z"/><path d="M.37,9.04L8.6,.49c-.2,.06-.4,.12-.6,.19L.84,7.58c-.19,.47-.35,.96-.47,1.46h0Z"/><path d="M.36,14.91L14.47,.26s-.09-.02-.13-.03L.15,13.89c.05,.35,.12,.69,.21,1.02h0Z"/><path d="M.69,16.03L15.6,.55s-.07-.02-.1-.03L.4,15.07c.09,.33,.19,.65,.3,.96h0Z"/><path d="M14.44,23.75l9.39-9.76c.02-.12,.04-.25,.06-.37l-10.72,10.32c.43-.04,.85-.11,1.27-.19h0Z"/><path d="M3.49,20.46L20.13,3.18l-.03-.03L2.85,19.76c.2,.24,.42,.47,.64,.7h0Z"/><path d="M2.8,19.71L19.35,2.52s-.02-.02-.03-.03L2.22,18.96c.18,.26,.38,.51,.58,.75h0Z"/><path d="M16.42,23.16l6.89-7.16c.07-.2,.13-.4,.19-.6l-8.55,8.23c.5-.13,.99-.29,1.46-.47h0Z"/><path d="M3.54,20.51c.22,.22,.46,.44,.7,.64L20.85,3.9l-.03-.03L3.54,20.51Z"/><path d="M0,12c0,.12,0,.23,0,.35L11.89,0c-.09,0-.17,0-.26,0L.03,11.18C0,11.45,0,11.73,0,12h0Z"/><path d="M2.88,4.2c-.63,.74-1.18,1.56-1.62,2.44L6.24,1.47c-.6,.33-1.16,.7-1.69,1.12l-1.68,1.62Z"/><path d="M7.85,23.26L23.1,7.43s-.02-.05-.03-.07L6.94,22.88c.3,.14,.6,.26,.91,.38h0Z"/><path d="M19.8,21.12l1.62-1.68c.42-.53,.79-1.09,1.12-1.69l-5.18,4.99c.88-.44,1.7-.99,2.44-1.62h0Z"/><path d="M11.39,23.98l12.56-13.05c0-.06-.01-.12-.02-.18l-13.63,13.13c.36,.05,.72,.09,1.09,.1h0Z"/><path d="M8.93,23.6l14.55-15.11s-.02-.07-.03-.1L7.97,23.31c.32,.11,.64,.21,.96,.3h0Z"/><path d="M9.09,23.64c.34,.08,.68,.15,1.02,.21l13.66-14.19s-.02-.09-.03-.13l-14.66,14.12Z"/></svg>